<svg width="18" height="13" viewBox="0 0 18 13" fill="none" xmlns="http://www.w3.org/2000/svg">
<path fill-rule="evenodd" clip-rule="evenodd" d="M3.33333 0C1.49239 0 0 1.53166 0 3.42105V9.57895C0 11.4683 1.49239 13 3.33333 13H14.6667C16.5076 13 18 11.4683 18 9.57895V3.42105C18 1.53166 16.5076 0 14.6667 0H3.33333ZM5.1718 9.62027C4.67847 9.53817 4.2718 9.41501 3.9518 9.2508V10.154C3.9518 10.4003 4.0518 10.5987 4.2518 10.7492C4.46513 10.8861 4.73847 10.9955 5.0718 11.0776C5.41847 11.1597 5.80513 11.2145 6.2318 11.2419C6.6718 11.2692 7.11847 11.2897 7.5718 11.3034H9.0918C9.5718 11.3034 10.0718 11.2829 10.5918 11.2419C11.2851 11.2008 11.8918 11.0845 12.4118 10.8929C12.9318 10.7013 13.3385 10.3866 13.6318 9.94869C13.9385 9.5108 14.0918 8.92238 14.0918 8.18343C14.0918 7.40343 13.9585 6.82869 13.6918 6.45922C13.4385 6.08975 13.0785 5.85027 12.6118 5.7408C12.1451 5.63133 11.5985 5.57659 10.9718 5.57659H9.9918H8.2518C7.91847 5.57659 7.63847 5.54922 7.4118 5.49448C7.19847 5.43975 7.0318 5.33712 6.9118 5.18659C6.80513 5.02238 6.7518 4.79659 6.7518 4.50922C6.7518 4.13975 6.8318 3.86606 6.9918 3.68817C7.16513 3.49659 7.39847 3.36657 7.6918 3.29815C7.99847 3.22973 8.35847 3.19552 8.7718 3.19552H10.3518C10.6051 3.19552 10.9118 3.20236 11.2718 3.21604C11.6318 3.22973 11.9918 3.2571 12.3518 3.29815C12.7251 3.32552 13.0518 3.37341 13.3318 3.44185C13.6251 3.51027 13.8251 3.59922 13.9318 3.70869V3.52396V3.19552V2.96973C13.9318 2.69604 13.8318 2.47025 13.6318 2.29236C13.4318 2.10078 13.1451 1.99131 12.7718 1.96394C12.5318 1.88183 12.1851 1.82025 11.7318 1.7792C11.2918 1.73815 10.8185 1.71078 10.3118 1.6971C9.80513 1.68341 9.33847 1.67657 8.9118 1.67657C8.20513 1.67657 7.5518 1.70394 6.9518 1.75867C6.3518 1.81341 5.83179 1.94341 5.3918 2.14867C4.9518 2.34025 4.6118 2.64131 4.3718 3.05183C4.1318 3.44869 4.0118 4.00291 4.0118 4.71448C4.0118 5.31659 4.1118 5.78869 4.3118 6.1308C4.5118 6.45922 4.77847 6.69869 5.1118 6.84922C5.45847 6.99975 5.83847 7.09554 6.2518 7.13659C6.66513 7.17764 7.07847 7.19817 7.4918 7.19817H8.5318H9.2518H9.8118C10.3051 7.19817 10.6718 7.27343 10.9118 7.42396C11.1518 7.5608 11.2718 7.85501 11.2718 8.30659C11.2718 8.67606 11.1918 8.96343 11.0318 9.1687C10.8718 9.37396 10.6385 9.52448 10.3318 9.62027C10.0251 9.70238 9.65847 9.75027 9.2318 9.76396C9.08513 9.77764 8.89847 9.78448 8.6718 9.78448H8.1318C7.71847 9.78448 7.24513 9.77764 6.7118 9.76396C6.17847 9.73659 5.66513 9.68869 5.1718 9.62027Z" fill="black"/>
</svg>
