<svg width="76" height="19" viewBox="0 0 76 19" fill="none" xmlns="http://www.w3.org/2000/svg">
<path d="M29.9077 16C29.5837 16 29.3677 15.955 29.2597 15.865C29.1517 15.757 29.0977 15.541 29.0977 15.217V6.00999C29.2417 5.95599 29.4487 5.88399 29.7187 5.79399C29.9887 5.70399 30.3127 5.61399 30.6907 5.52399C31.0687 5.41599 31.5007 5.33499 31.9867 5.28099C32.4907 5.20899 33.0397 5.17299 33.6337 5.17299C34.2457 5.17299 34.7767 5.22699 35.2267 5.33499C35.6767 5.42499 36.0637 5.59599 36.3877 5.84799C36.7117 6.08199 36.9817 6.40599 37.1977 6.81999H36.8197C36.9637 6.51399 37.1707 6.25299 37.4407 6.03699C37.7107 5.80299 38.0257 5.62299 38.3857 5.49699C38.7457 5.37099 39.1147 5.28099 39.4927 5.22699C39.8887 5.17299 40.2667 5.14599 40.6267 5.14599C41.6347 5.14599 42.4267 5.24499 43.0027 5.44299C43.5787 5.64099 43.9837 5.97399 44.2177 6.44199C44.4697 6.90999 44.5957 7.53099 44.5957 8.30499V15.271C44.5957 15.559 44.5417 15.757 44.4337 15.865C44.3257 15.955 44.1277 16 43.8397 16H42.7057C42.7057 14.704 42.7057 13.417 42.7057 12.139C42.7057 10.843 42.7057 9.54699 42.7057 8.25099C42.7057 7.45899 42.5077 6.91899 42.1117 6.63099C41.7337 6.32499 41.1667 6.17199 40.4107 6.17199C40.0507 6.17199 39.6637 6.21699 39.2497 6.30699C38.8537 6.39699 38.5117 6.53199 38.2237 6.71199C37.9357 6.89199 37.7917 7.09899 37.7917 7.33299V16H35.9017V7.54899C35.9017 7.17099 35.6767 6.85599 35.2267 6.60399C34.7947 6.33399 34.2367 6.19899 33.5527 6.19899C33.1387 6.19899 32.7427 6.23499 32.3647 6.30699C31.9867 6.36099 31.6717 6.45099 31.4197 6.57699C31.1677 6.68499 31.0237 6.83799 30.9877 7.03599V16H29.9077ZM52.2766 16.189C51.2146 16.189 50.3506 16.135 49.6846 16.027C49.0186 15.919 48.5056 15.739 48.1456 15.487C47.8036 15.217 47.5606 14.866 47.4166 14.434C47.2906 14.002 47.2276 13.471 47.2276 12.841C47.2276 11.923 47.3356 11.221 47.5516 10.735C47.7676 10.249 48.1456 9.91599 48.6856 9.73599C49.2256 9.55599 49.9456 9.46599 50.8456 9.46599C51.2956 9.46599 51.7816 9.48399 52.3036 9.51999C52.8436 9.53799 53.3566 9.56499 53.8426 9.60099C54.3466 9.61899 54.7786 9.64599 55.1386 9.68199C55.5166 9.71799 55.7686 9.76299 55.8946 9.81699C55.8946 8.98899 55.8226 8.33199 55.6786 7.84599C55.5346 7.35999 55.3096 6.99999 55.0036 6.76599C54.7156 6.53199 54.3466 6.37899 53.8966 6.30699C53.4646 6.23499 52.9606 6.19899 52.3846 6.19899C51.7906 6.19899 51.1876 6.22599 50.5756 6.27999C49.9816 6.31599 49.4326 6.38799 48.9286 6.49599C48.4246 6.58599 48.0376 6.71199 47.7676 6.87399V6.46899C47.7676 6.09099 47.8756 5.82999 48.0916 5.68599C48.3256 5.52399 48.5866 5.41599 48.8746 5.36199C49.2166 5.27199 49.7116 5.19999 50.3596 5.14599C51.0256 5.09199 51.7186 5.07399 52.4386 5.09199C53.3566 5.09199 54.1396 5.13699 54.7876 5.22699C55.4536 5.31699 56.0026 5.51499 56.4346 5.82099C56.8666 6.10899 57.1906 6.54999 57.4066 7.14399C57.6226 7.73799 57.7306 8.54799 57.7306 9.57399V15.136C57.6226 15.496 57.1456 15.766 56.2996 15.946C55.4536 16.108 54.1126 16.189 52.2766 16.189ZM52.2766 15.271C53.1046 15.271 53.7616 15.244 54.2476 15.19C54.7516 15.136 55.1296 15.064 55.3816 14.974C55.6516 14.884 55.8226 14.767 55.8946 14.623V10.6C55.7326 10.546 55.4266 10.492 54.9766 10.438C54.5446 10.384 54.0856 10.339 53.5996 10.303C53.1136 10.249 52.6996 10.222 52.3576 10.222C51.5836 10.222 50.9536 10.267 50.4676 10.357C49.9996 10.447 49.6576 10.672 49.4416 11.032C49.2436 11.392 49.1446 11.95 49.1446 12.706C49.1446 13.3 49.2166 13.786 49.3606 14.164C49.5046 14.542 49.7926 14.821 50.2246 15.001C50.6746 15.181 51.3586 15.271 52.2766 15.271ZM62.6283 16H61.4403C61.2063 16 61.0263 15.946 60.9003 15.838C60.7923 15.712 60.7383 15.487 60.7383 15.163V5.76699C61.1343 5.64099 61.6743 5.50599 62.3583 5.36199C63.0603 5.21799 63.9243 5.14599 64.9503 5.14599C65.9223 5.14599 66.6873 5.21799 67.2453 5.36199C67.8213 5.48799 68.2353 5.66799 68.4873 5.90199C68.7573 6.13599 68.9283 6.42399 69.0003 6.76599C69.0903 7.08999 69.1353 7.45899 69.1353 7.87299H67.3263L67.2993 7.49499C67.2813 7.08099 67.1463 6.78399 66.8943 6.60399C66.6423 6.40599 66.3453 6.28899 66.0033 6.25299C65.6613 6.19899 65.3193 6.17199 64.9773 6.17199C64.4553 6.17199 63.9873 6.21699 63.5733 6.30699C63.1773 6.39699 62.8623 6.51399 62.6283 6.65799V16ZM73.9852 16.081C73.3732 16.081 72.8962 16.009 72.5542 15.865C72.2122 15.703 71.9602 15.433 71.7982 15.055C71.6362 14.677 71.5552 14.164 71.5552 13.516V6.27999H70.5292V5.22699H71.5552V3.28299C71.5552 3.01299 71.5732 2.81499 71.6092 2.68899C71.6632 2.54499 71.7442 2.45499 71.8522 2.41899C71.9602 2.38299 72.1132 2.36499 72.3112 2.36499H73.4722C73.4722 2.40099 73.4632 2.48199 73.4452 2.60799C73.4452 2.71599 73.4452 2.87799 73.4452 3.09399V5.22699H75.9562V6.27999H73.4452V13.3C73.4452 14.002 73.5172 14.497 73.6612 14.785C73.8052 15.073 74.1292 15.217 74.6332 15.217C74.8312 15.217 75.0382 15.199 75.2542 15.163C75.4702 15.127 75.6232 15.091 75.7132 15.055V15.892C75.6052 15.91 75.3982 15.946 75.0922 16C74.7862 16.054 74.4172 16.081 73.9852 16.081Z" fill="white"/>
<path fill-rule="evenodd" clip-rule="evenodd" d="M5 0C2.23858 0 0 2.23858 0 5V14C0 16.7614 2.23858 19 5 19H22C24.7614 19 27 16.7614 27 14V5C27 2.23858 24.7614 0 22 0H5ZM7.7577 14.0604C7.0177 13.9404 6.4077 13.7604 5.9277 13.5204V14.8404C5.9277 15.2004 6.0777 15.4904 6.3777 15.7104C6.6977 15.9104 7.1077 16.0704 7.6077 16.1904C8.1277 16.3104 8.7077 16.3904 9.3477 16.4304C10.0077 16.4704 10.6777 16.5004 11.3577 16.5204H13.6377C14.3577 16.5204 15.1077 16.4904 15.8877 16.4304C16.9277 16.3704 17.8377 16.2004 18.6177 15.9204C19.3977 15.6404 20.0077 15.1804 20.4477 14.5404C20.9077 13.9004 21.1377 13.0404 21.1377 11.9604C21.1377 10.8204 20.9377 9.9804 20.5377 9.4404C20.1577 8.9004 19.6177 8.5504 18.9177 8.3904C18.2177 8.2304 17.3977 8.1504 16.4577 8.1504H14.9877H12.3777C11.8777 8.1504 11.4577 8.1104 11.1177 8.0304C10.7977 7.9504 10.5477 7.8004 10.3677 7.5804C10.2077 7.3404 10.1277 7.0104 10.1277 6.5904C10.1277 6.0504 10.2477 5.6504 10.4877 5.3904C10.7477 5.1104 11.0977 4.92037 11.5377 4.82037C11.9977 4.72037 12.5377 4.67037 13.1577 4.67037H15.5277C15.9077 4.67037 16.3677 4.68037 16.9077 4.70037C17.4477 4.72037 17.9877 4.76037 18.5277 4.82037C19.0877 4.86037 19.5777 4.93037 19.9977 5.0304C20.4377 5.1304 20.7377 5.2604 20.8977 5.4204V5.1504V4.67037V4.34037C20.8977 3.94037 20.7477 3.61037 20.4477 3.35037C20.1477 3.07037 19.7177 2.91037 19.1577 2.87037C18.7977 2.75037 18.2777 2.66037 17.5977 2.60037C16.9377 2.54037 16.2277 2.50037 15.4677 2.48037C14.7077 2.46037 14.0077 2.45037 13.3677 2.45037C12.3077 2.45037 11.3277 2.49037 10.4277 2.57037C9.5277 2.65037 8.74769 2.84037 8.0877 3.14037C7.4277 3.42037 6.9177 3.86037 6.5577 4.46037C6.1977 5.0404 6.0177 5.8504 6.0177 6.8904C6.0177 7.7704 6.1677 8.4604 6.4677 8.9604C6.7677 9.4404 7.1677 9.7904 7.6677 10.0104C8.1877 10.2304 8.7577 10.3704 9.3777 10.4304C9.9977 10.4904 10.6177 10.5204 11.2377 10.5204H12.7977H13.8777H14.7177C15.4577 10.5204 16.0077 10.6304 16.3677 10.8504C16.7277 11.0504 16.9077 11.4804 16.9077 12.1404C16.9077 12.6804 16.7877 13.1004 16.5477 13.4004C16.3077 13.7004 15.9577 13.9204 15.4977 14.0604C15.0377 14.1804 14.4877 14.2504 13.8477 14.2704C13.6277 14.2904 13.3477 14.3004 13.0077 14.3004H12.1977C11.5777 14.3004 10.8677 14.2904 10.0677 14.2704C9.2677 14.2304 8.49769 14.1604 7.7577 14.0604Z" fill="white"/>
<mask id="mask0_214_241" style="mask-type:luminance" maskUnits="userSpaceOnUse" x="0" y="0" width="27" height="19">
<path fill-rule="evenodd" clip-rule="evenodd" d="M5 0C2.23858 0 0 2.23858 0 5V14C0 16.7614 2.23858 19 5 19H22C24.7614 19 27 16.7614 27 14V5C27 2.23858 24.7614 0 22 0H5ZM7.7577 14.0604C7.0177 13.9404 6.4077 13.7604 5.9277 13.5204V14.8404C5.9277 15.2004 6.0777 15.4904 6.3777 15.7104C6.6977 15.9104 7.1077 16.0704 7.6077 16.1904C8.1277 16.3104 8.7077 16.3904 9.3477 16.4304C10.0077 16.4704 10.6777 16.5004 11.3577 16.5204H13.6377C14.3577 16.5204 15.1077 16.4904 15.8877 16.4304C16.9277 16.3704 17.8377 16.2004 18.6177 15.9204C19.3977 15.6404 20.0077 15.1804 20.4477 14.5404C20.9077 13.9004 21.1377 13.0404 21.1377 11.9604C21.1377 10.8204 20.9377 9.9804 20.5377 9.4404C20.1577 8.9004 19.6177 8.5504 18.9177 8.3904C18.2177 8.2304 17.3977 8.1504 16.4577 8.1504H14.9877H12.3777C11.8777 8.1504 11.4577 8.1104 11.1177 8.0304C10.7977 7.9504 10.5477 7.8004 10.3677 7.5804C10.2077 7.3404 10.1277 7.0104 10.1277 6.5904C10.1277 6.0504 10.2477 5.6504 10.4877 5.3904C10.7477 5.1104 11.0977 4.92037 11.5377 4.82037C11.9977 4.72037 12.5377 4.67037 13.1577 4.67037H15.5277C15.9077 4.67037 16.3677 4.68037 16.9077 4.70037C17.4477 4.72037 17.9877 4.76037 18.5277 4.82037C19.0877 4.86037 19.5777 4.93037 19.9977 5.0304C20.4377 5.1304 20.7377 5.2604 20.8977 5.4204V5.1504V4.67037V4.34037C20.8977 3.94037 20.7477 3.61037 20.4477 3.35037C20.1477 3.07037 19.7177 2.91037 19.1577 2.87037C18.7977 2.75037 18.2777 2.66037 17.5977 2.60037C16.9377 2.54037 16.2277 2.50037 15.4677 2.48037C14.7077 2.46037 14.0077 2.45037 13.3677 2.45037C12.3077 2.45037 11.3277 2.49037 10.4277 2.57037C9.5277 2.65037 8.74769 2.84037 8.0877 3.14037C7.4277 3.42037 6.9177 3.86037 6.5577 4.46037C6.1977 5.0404 6.0177 5.8504 6.0177 6.8904C6.0177 7.7704 6.1677 8.4604 6.4677 8.9604C6.7677 9.4404 7.1677 9.7904 7.6677 10.0104C8.1877 10.2304 8.7577 10.3704 9.3777 10.4304C9.9977 10.4904 10.6177 10.5204 11.2377 10.5204H12.7977H13.8777H14.7177C15.4577 10.5204 16.0077 10.6304 16.3677 10.8504C16.7277 11.0504 16.9077 11.4804 16.9077 12.1404C16.9077 12.6804 16.7877 13.1004 16.5477 13.4004C16.3077 13.7004 15.9577 13.9204 15.4977 14.0604C15.0377 14.1804 14.4877 14.2504 13.8477 14.2704C13.6277 14.2904 13.3477 14.3004 13.0077 14.3004H12.1977C11.5777 14.3004 10.8677 14.2904 10.0677 14.2704C9.2677 14.2304 8.49769 14.1604 7.7577 14.0604Z" fill="white"/>
</mask>
<g mask="url(#mask0_214_241)">
<path d="M5.9277 13.5204L6.37491 12.6259L4.9277 11.9023V13.5204H5.9277ZM7.7577 14.0604L7.59762 15.0475L7.61068 15.0496L7.62378 15.0514L7.7577 14.0604ZM6.3777 15.7104L5.78633 16.5168L5.81624 16.5387L5.84769 16.5584L6.3777 15.7104ZM7.6077 16.1904L7.37431 17.1628L7.38284 17.1648L7.6077 16.1904ZM9.3477 16.4304L9.28532 17.4284L9.2872 17.4285L9.3477 16.4304ZM11.3577 16.5204L11.3283 17.5199L11.343 17.5204H11.3577V16.5204ZM15.8877 16.4304L15.8301 15.432L15.8205 15.4326L15.811 15.4333L15.8877 16.4304ZM20.4477 14.5404L19.6357 13.9567L19.6296 13.9652L19.6237 13.9738L20.4477 14.5404ZM20.5377 9.4404L19.7199 10.0159L19.7269 10.0258L19.7341 10.0356L20.5377 9.4404ZM11.1177 8.0304L10.8751 9.0006L10.8887 9.0038L11.1177 8.0304ZM10.3677 7.5804L9.53565 8.1351L9.56277 8.1758L9.59374 8.2136L10.3677 7.5804ZM10.4877 5.3904L9.7549 4.70991L9.75289 4.71209L10.4877 5.3904ZM11.5377 4.82037L11.3253 3.84315L11.3161 3.84524L11.5377 4.82037ZM18.5277 4.82037L18.4173 5.8143L18.4368 5.8164L18.4564 5.8178L18.5277 4.82037ZM19.9977 5.0304L19.7661 6.0032L19.7761 6.0055L19.9977 5.0304ZM20.8977 5.4204L20.1906 6.1275L21.8977 7.8346V5.4204H20.8977ZM20.4477 3.35037L19.7654 4.08142L19.7788 4.09399L19.7928 4.10606L20.4477 3.35037ZM19.1577 2.87037L18.8415 3.81905L18.9609 3.85886L19.0864 3.86783L19.1577 2.87037ZM17.5977 2.60037L17.5072 3.59627L17.5098 3.5965L17.5977 2.60037ZM8.0877 3.14037L8.47825 4.06095L8.48994 4.05599L8.5015 4.05074L8.0877 3.14037ZM6.5577 4.46037L7.40734 4.98773L7.41131 4.98133L7.41519 4.97487L6.5577 4.46037ZM6.4677 8.9604L5.6102 9.4749L5.61488 9.4827L5.6197 9.4904L6.4677 8.9604ZM7.6677 10.0104L7.26496 10.9257L7.27149 10.9286L7.27806 10.9313L7.6677 10.0104ZM16.3677 10.8504L15.8462 11.7037L15.8639 11.7145L15.8821 11.7245L16.3677 10.8504ZM15.4977 14.0604L15.7501 15.028L15.7696 15.0229L15.7889 15.017L15.4977 14.0604ZM13.8477 14.2704L13.8165 13.2709L13.7868 13.2718L13.7572 13.2745L13.8477 14.2704ZM10.0677 14.2704L10.0178 15.2691L10.0302 15.2697L10.0427 15.2701L10.0677 14.2704ZM1 5C1 2.79086 2.79086 1 5 1V-1C1.68629 -1 -1 1.68629 -1 5H1ZM1 14V5H-1V14H1ZM5 18C2.79086 18 1 16.2091 1 14H-1C-1 17.3137 1.68629 20 5 20V18ZM22 18H5V20H22V18ZM26 14C26 16.2091 24.2091 18 22 18V20C25.3137 20 28 17.3137 28 14H26ZM26 5V14H28V5H26ZM22 1C24.2091 1 26 2.79086 26 5H28C28 1.68629 25.3137 -1 22 -1V1ZM5 1H22V-1H5V1ZM5.48048 14.4148C6.07891 14.714 6.79419 14.9172 7.59762 15.0475L7.91777 13.0733C7.2412 12.9636 6.73648 12.8067 6.37491 12.6259L5.48048 14.4148ZM6.9277 14.8404V13.5204H4.9277V14.8404H6.9277ZM6.96906 14.904C6.94657 14.8875 6.93523 14.8758 6.93066 14.8706C6.92639 14.8658 6.92671 14.8652 6.92841 14.8684C6.93016 14.8718 6.93057 14.8739 6.93021 14.8724C6.92977 14.8705 6.9277 14.8606 6.9277 14.8404H4.9277C4.9277 15.5313 5.23957 16.1158 5.78633 16.5168L6.96906 14.904ZM7.84107 15.218C7.41064 15.1147 7.10973 14.9886 6.9077 14.8624L5.84769 16.5584C6.28566 16.8321 6.80474 17.0261 7.37431 17.1628L7.84107 15.218ZM9.41007 15.4323C8.81426 15.3951 8.28975 15.3215 7.83255 15.216L7.38284 17.1648C7.96564 17.2993 8.60113 17.3857 9.28532 17.4284L9.41007 15.4323ZM11.3871 15.5208C10.7172 15.5011 10.0575 15.4716 9.40819 15.4322L9.2872 17.4285C9.95785 17.4692 10.6382 17.4996 11.3283 17.5199L11.3871 15.5208ZM13.6377 15.5204H11.3577V17.5204H13.6377V15.5204ZM15.811 15.4333C15.0544 15.4915 14.33 15.5204 13.6377 15.5204V17.5204C14.3854 17.5204 15.161 17.4892 15.9644 17.4274L15.811 15.4333ZM18.2798 14.9792C17.6097 15.2197 16.7978 15.3762 15.8301 15.432L15.9453 17.4287C17.0576 17.3645 18.0657 17.181 18.9556 16.8616L18.2798 14.9792ZM19.6237 13.9738C19.3106 14.4292 18.8765 14.765 18.2798 14.9792L18.9556 16.8616C19.9189 16.5158 20.7048 15.9315 21.2717 15.1069L19.6237 13.9738ZM20.1377 11.9604C20.1377 12.9068 19.9356 13.5395 19.6357 13.9567L21.2597 15.124C21.8798 14.2612 22.1377 13.1739 22.1377 11.9604H20.1377ZM19.7341 10.0356C19.9447 10.3199 20.1377 10.9001 20.1377 11.9604H22.1377C22.1377 10.7407 21.9307 9.6408 21.3413 8.8451L19.7341 10.0356ZM18.6949 9.3652C19.1769 9.4754 19.495 9.6963 19.7199 10.0159L21.3555 8.8649C20.8204 8.1044 20.0585 7.6253 19.1405 7.4155L18.6949 9.3652ZM16.4577 9.1504C17.3443 9.1504 18.0864 9.2261 18.6949 9.3652L19.1405 7.4155C18.349 7.2346 17.4511 7.1504 16.4577 7.1504V9.1504ZM14.9877 9.1504H16.4577V7.1504H14.9877V9.1504ZM12.3777 9.1504H14.9877V7.1504H12.3777V9.1504ZM10.8887 9.0038C11.3282 9.1072 11.8307 9.1504 12.3777 9.1504V7.1504C11.9247 7.1504 11.5872 7.1135 11.3467 7.057L10.8887 9.0038ZM9.59374 8.2136C9.93108 8.6259 10.3811 8.8771 10.8751 9.0006L11.3602 7.0602C11.2142 7.0237 11.1643 6.9748 11.1417 6.9471L9.59374 8.2136ZM9.1277 6.5904C9.1277 7.1223 9.22678 7.6718 9.53565 8.1351L11.1997 7.0257C11.1886 7.009 11.1277 6.8984 11.1277 6.5904H9.1277ZM9.75289 4.71209C9.27176 5.2333 9.1277 5.9273 9.1277 6.5904H11.1277C11.1277 6.3908 11.1503 6.2568 11.1755 6.1727C11.1878 6.1319 11.1997 6.1058 11.2081 6.0905C11.2162 6.0756 11.2216 6.0697 11.2225 6.0686L9.75289 4.71209ZM11.3161 3.84524C10.7162 3.98157 10.1751 4.25741 9.7549 4.70991L11.2205 6.0708C11.3203 5.9633 11.4792 5.8592 11.7593 5.7955L11.3161 3.84524ZM13.1577 3.67037C12.4873 3.67037 11.873 3.72408 11.3253 3.84315L11.7501 5.7975C12.1224 5.7166 12.5881 5.6704 13.1577 5.6704V3.67037ZM15.5277 3.67037H13.1577V5.6704H15.5277V3.67037ZM16.9447 3.70105C16.397 3.68077 15.924 3.67037 15.5277 3.67037V5.6704C15.8914 5.6704 16.3383 5.68 16.8707 5.6997L16.9447 3.70105ZM18.6381 3.82649C18.0739 3.76379 17.5094 3.72197 16.9447 3.70105L16.8707 5.6997C17.386 5.7188 17.9015 5.7569 18.4173 5.8143L18.6381 3.82649ZM20.2293 4.05756C19.7437 3.94194 19.1979 3.86569 18.5989 3.82291L18.4564 5.8178C18.9775 5.855 19.4117 5.9188 19.7661 6.0032L20.2293 4.05756ZM21.6048 4.71326C21.2334 4.34184 20.6927 4.16283 20.2193 4.05524L19.7761 6.0055C19.9567 6.0466 20.0786 6.0873 20.1551 6.1204C20.2367 6.1558 20.2298 6.1667 20.1906 6.1275L21.6048 4.71326ZM19.8977 5.1504V5.4204H21.8977V5.1504H19.8977ZM19.8977 4.67037V5.1504H21.8977V4.67037H19.8977ZM19.8977 4.34037V4.67037H21.8977V4.34037H19.8977ZM19.7928 4.10606C19.8717 4.17447 19.8977 4.22786 19.8977 4.34037H21.8977C21.8977 3.65288 21.6237 3.04627 21.1026 2.59468L19.7928 4.10606ZM19.0864 3.86783C19.5017 3.89749 19.6849 4.00634 19.7654 4.08142L21.13 2.61932C20.6105 2.1344 19.9337 1.92325 19.2289 1.87291L19.0864 3.86783ZM17.5098 3.5965C18.1633 3.65416 18.592 3.73591 18.8415 3.81905L19.4739 1.92169C19.0034 1.76483 18.3921 1.66658 17.6856 1.60424L17.5098 3.5965ZM15.4414 3.48002C16.183 3.49954 16.8714 3.53847 17.5072 3.59627L17.6882 1.60448C17.004 1.54228 16.2724 1.5012 15.494 1.48072L15.4414 3.48002ZM13.3677 3.45037C13.9975 3.45037 14.6886 3.46021 15.4414 3.48002L15.494 1.48072C14.7268 1.46053 14.0179 1.45037 13.3677 1.45037V3.45037ZM10.5162 3.56644C11.3823 3.48946 12.3323 3.45037 13.3677 3.45037V1.45037C12.283 1.45037 11.2731 1.49128 10.3392 1.5743L10.5162 3.56644ZM8.5015 4.05074C9.03692 3.80736 9.70214 3.63881 10.5162 3.56644L10.3392 1.5743C9.35325 1.66193 8.45847 1.87338 7.67389 2.23L8.5015 4.05074ZM7.41519 4.97487C7.66356 4.56092 8.00778 4.26054 8.47825 4.06095L7.69715 2.21979C6.84761 2.5802 6.17184 3.15982 5.7002 3.94587L7.41519 4.97487ZM7.0177 6.8904C7.0177 5.9464 7.18431 5.347 7.40734 4.98773L5.70806 3.93301C5.21108 4.73369 5.0177 5.7544 5.0177 6.8904H7.0177ZM7.32519 8.4459C7.15433 8.1611 7.0177 7.6746 7.0177 6.8904H5.0177C5.0177 7.8661 5.18106 8.7596 5.6102 9.4749L7.32519 8.4459ZM8.07043 9.0951C7.76109 8.9589 7.5134 8.7467 7.31569 8.4304L5.6197 9.4904C6.022 10.134 6.5743 10.6218 7.26496 10.9257L8.07043 9.0951ZM9.47402 9.435C8.94467 9.3838 8.4748 9.266 8.05734 9.0894L7.27806 10.9313C7.90059 11.1947 8.57072 11.3569 9.28137 11.4257L9.47402 9.435ZM11.2377 9.5204C10.65 9.5204 10.0622 9.4919 9.47402 9.435L9.28137 11.4257C9.93324 11.4888 10.5854 11.5204 11.2377 11.5204V9.5204ZM12.7977 9.5204H11.2377V11.5204H12.7977V9.5204ZM13.8777 9.5204H12.7977V11.5204H13.8777V9.5204ZM14.7177 9.5204H13.8777V11.5204H14.7177V9.5204ZM16.8891 9.9971C16.2938 9.6332 15.5208 9.5204 14.7177 9.5204V11.5204C15.3946 11.5204 15.7216 11.6275 15.8462 11.7037L16.8891 9.9971ZM17.9077 12.1404C17.9077 11.3501 17.6923 10.4423 16.8533 9.9762L15.8821 11.7245C15.8402 11.7013 15.8349 11.6723 15.8503 11.709C15.8725 11.7621 15.9077 11.8919 15.9077 12.1404H17.9077ZM17.3286 14.0251C17.7581 13.4881 17.9077 12.817 17.9077 12.1404H15.9077C15.9077 12.5437 15.8173 12.7126 15.7668 12.7757L17.3286 14.0251ZM15.7889 15.017C16.3931 14.8331 16.9341 14.5182 17.3286 14.0251L15.7668 12.7757C15.6813 12.8826 15.5223 13.0076 15.2065 13.1037L15.7889 15.017ZM13.8789 15.2699C14.5697 15.2483 15.1978 15.1721 15.7501 15.028L15.2453 13.0928C14.8776 13.1887 14.4057 13.2524 13.8165 13.2709L13.8789 15.2699ZM13.0077 15.3004C13.3637 15.3004 13.6767 15.29 13.9382 15.2663L13.7572 13.2745C13.5787 13.2907 13.3317 13.3004 13.0077 13.3004V15.3004ZM12.1977 15.3004H13.0077V13.3004H12.1977V15.3004ZM10.0427 15.2701C10.8488 15.2902 11.5674 15.3004 12.1977 15.3004V13.3004C11.588 13.3004 10.8866 13.2905 10.0927 13.2707L10.0427 15.2701ZM7.62378 15.0514C8.39357 15.1554 9.19167 15.2278 10.0178 15.2691L10.1176 13.2716C9.34372 13.2329 8.60182 13.1654 7.89161 13.0694L7.62378 15.0514Z" fill="white"/>
</g>
</svg>
