<svg width="77" height="26" viewBox="0 0 77 26" fill="none" xmlns="http://www.w3.org/2000/svg">
<path d="M29.9085 21C29.5845 21 29.3685 20.955 29.2605 20.865C29.1525 20.757 29.0985 20.541 29.0985 20.217V11.01C29.2425 10.956 29.4495 10.884 29.7195 10.794C29.9895 10.704 30.3135 10.614 30.6915 10.524C31.0695 10.416 31.5015 10.335 31.9875 10.281C32.4915 10.209 33.0405 10.173 33.6345 10.173C34.2465 10.173 34.7775 10.227 35.2275 10.335C35.6775 10.425 36.0645 10.596 36.3885 10.848C36.7125 11.082 36.9825 11.406 37.1985 11.82H36.8205C36.9645 11.514 37.1715 11.253 37.4415 11.037C37.7115 10.803 38.0265 10.623 38.3865 10.497C38.7465 10.371 39.1155 10.281 39.4935 10.227C39.8895 10.173 40.2675 10.146 40.6275 10.146C41.6355 10.146 42.4275 10.245 43.0035 10.443C43.5795 10.641 43.9845 10.974 44.2185 11.442C44.4705 11.91 44.5965 12.531 44.5965 13.305V20.271C44.5965 20.559 44.5425 20.757 44.4345 20.865C44.3265 20.955 44.1285 21 43.8405 21H42.7065C42.7065 19.704 42.7065 18.417 42.7065 17.139C42.7065 15.843 42.7065 14.547 42.7065 13.251C42.7065 12.459 42.5085 11.919 42.1125 11.631C41.7345 11.325 41.1675 11.172 40.4115 11.172C40.0515 11.172 39.6645 11.217 39.2505 11.307C38.8545 11.397 38.5125 11.532 38.2245 11.712C37.9365 11.892 37.7925 12.099 37.7925 12.333V21H35.9025V12.549C35.9025 12.171 35.6775 11.856 35.2275 11.604C34.7955 11.334 34.2375 11.199 33.5535 11.199C33.1395 11.199 32.7435 11.235 32.3655 11.307C31.9875 11.361 31.6725 11.451 31.4205 11.577C31.1685 11.685 31.0245 11.838 30.9885 12.036V21H29.9085ZM52.2774 21.189C51.2154 21.189 50.3514 21.135 49.6854 21.027C49.0194 20.919 48.5064 20.739 48.1464 20.487C47.8044 20.217 47.5614 19.866 47.4174 19.434C47.2914 19.002 47.2284 18.471 47.2284 17.841C47.2284 16.923 47.3364 16.221 47.5524 15.735C47.7684 15.249 48.1464 14.916 48.6864 14.736C49.2264 14.556 49.9464 14.466 50.8464 14.466C51.2964 14.466 51.7824 14.484 52.3044 14.52C52.8444 14.538 53.3574 14.565 53.8434 14.601C54.3474 14.619 54.7794 14.646 55.1394 14.682C55.5174 14.718 55.7694 14.763 55.8954 14.817C55.8954 13.989 55.8234 13.332 55.6794 12.846C55.5354 12.36 55.3104 12 55.0044 11.766C54.7164 11.532 54.3474 11.379 53.8974 11.307C53.4654 11.235 52.9614 11.199 52.3854 11.199C51.7914 11.199 51.1884 11.226 50.5764 11.28C49.9824 11.316 49.4334 11.388 48.9294 11.496C48.4254 11.586 48.0384 11.712 47.7684 11.874V11.469C47.7684 11.091 47.8764 10.83 48.0924 10.686C48.3264 10.524 48.5874 10.416 48.8754 10.362C49.2174 10.272 49.7124 10.2 50.3604 10.146C51.0264 10.092 51.7194 10.074 52.4394 10.092C53.3574 10.092 54.1404 10.137 54.7884 10.227C55.4544 10.317 56.0034 10.515 56.4354 10.821C56.8674 11.109 57.1914 11.55 57.4074 12.144C57.6234 12.738 57.7314 13.548 57.7314 14.574V20.136C57.6234 20.496 57.1464 20.766 56.3004 20.946C55.4544 21.108 54.1134 21.189 52.2774 21.189ZM52.2774 20.271C53.1054 20.271 53.7624 20.244 54.2484 20.19C54.7524 20.136 55.1304 20.064 55.3824 19.974C55.6524 19.884 55.8234 19.767 55.8954 19.623V15.6C55.7334 15.546 55.4274 15.492 54.9774 15.438C54.5454 15.384 54.0864 15.339 53.6004 15.303C53.1144 15.249 52.7004 15.222 52.3584 15.222C51.5844 15.222 50.9544 15.267 50.4684 15.357C50.0004 15.447 49.6584 15.672 49.4424 16.032C49.2444 16.392 49.1454 16.95 49.1454 17.706C49.1454 18.3 49.2174 18.786 49.3614 19.164C49.5054 19.542 49.7934 19.821 50.2254 20.001C50.6754 20.181 51.3594 20.271 52.2774 20.271ZM62.6291 21H61.4411C61.2071 21 61.0271 20.946 60.9011 20.838C60.7931 20.712 60.7391 20.487 60.7391 20.163V10.767C61.1351 10.641 61.6751 10.506 62.3591 10.362C63.0611 10.218 63.9251 10.146 64.9511 10.146C65.9231 10.146 66.6881 10.218 67.2461 10.362C67.8221 10.488 68.2361 10.668 68.4881 10.902C68.7581 11.136 68.9291 11.424 69.0011 11.766C69.0911 12.09 69.1361 12.459 69.1361 12.873H67.3271L67.3001 12.495C67.2821 12.081 67.1471 11.784 66.8951 11.604C66.6431 11.406 66.3461 11.289 66.0041 11.253C65.6621 11.199 65.3201 11.172 64.9781 11.172C64.4561 11.172 63.9881 11.217 63.5741 11.307C63.1781 11.397 62.8631 11.514 62.6291 11.658V21ZM73.986 21.081C73.374 21.081 72.897 21.009 72.555 20.865C72.213 20.703 71.961 20.433 71.799 20.055C71.637 19.677 71.556 19.164 71.556 18.516V11.28H70.53V10.227H71.556V8.283C71.556 8.013 71.574 7.815 71.61 7.689C71.664 7.545 71.745 7.455 71.853 7.419C71.961 7.383 72.114 7.365 72.312 7.365H73.473C73.473 7.401 73.464 7.482 73.446 7.608C73.446 7.716 73.446 7.878 73.446 8.094V10.227H75.957V11.28H73.446V18.3C73.446 19.002 73.518 19.497 73.662 19.785C73.806 20.073 74.13 20.217 74.634 20.217C74.832 20.217 75.039 20.199 75.255 20.163C75.471 20.127 75.624 20.091 75.714 20.055V20.892C75.606 20.91 75.399 20.946 75.093 21C74.787 21.054 74.418 21.081 73.986 21.081Z" fill="black"/>
<mask id="path-2-inside-1_114_15" fill="white">
<path fill-rule="evenodd" clip-rule="evenodd" d="M5 5C2.23858 5 0 7.23858 0 10V19C0 21.7614 2.23858 24 5 24H22C24.7614 24 27 21.7614 27 19V10C27 7.23858 24.7614 5 22 5H5ZM7.7577 19.0604C7.0177 18.9404 6.4077 18.7604 5.9277 18.5204V19.8404C5.9277 20.2004 6.0777 20.4904 6.3777 20.7104C6.6977 20.9104 7.1077 21.0704 7.6077 21.1904C8.1277 21.3104 8.7077 21.3904 9.3477 21.4304C10.0077 21.4704 10.6777 21.5004 11.3577 21.5204H13.6377C14.3577 21.5204 15.1077 21.4904 15.8877 21.4304C16.9277 21.3704 17.8377 21.2004 18.6177 20.9204C19.3977 20.6404 20.0077 20.1804 20.4477 19.5404C20.9077 18.9004 21.1377 18.0404 21.1377 16.9604C21.1377 15.8204 20.9377 14.9804 20.5377 14.4404C20.1577 13.9004 19.6177 13.5504 18.9177 13.3904C18.2177 13.2304 17.3977 13.1504 16.4577 13.1504H14.9877H12.3777C11.8777 13.1504 11.4577 13.1104 11.1177 13.0304C10.7977 12.9504 10.5477 12.8004 10.3677 12.5804C10.2077 12.3404 10.1277 12.0104 10.1277 11.5904C10.1277 11.0504 10.2477 10.6504 10.4877 10.3904C10.7477 10.1104 11.0977 9.92037 11.5377 9.82037C11.9977 9.72037 12.5377 9.67037 13.1577 9.67037H15.5277C15.9077 9.67037 16.3677 9.68037 16.9077 9.70037C17.4477 9.72037 17.9877 9.76037 18.5277 9.82037C19.0877 9.86037 19.5777 9.93037 19.9977 10.0304C20.4377 10.1304 20.7377 10.2604 20.8977 10.4204V10.1504V9.67037V9.34037C20.8977 8.94037 20.7477 8.61037 20.4477 8.35037C20.1477 8.07037 19.7177 7.91037 19.1577 7.87037C18.7977 7.75037 18.2777 7.66037 17.5977 7.60037C16.9377 7.54037 16.2277 7.50037 15.4677 7.48037C14.7077 7.46037 14.0077 7.45037 13.3677 7.45037C12.3077 7.45037 11.3277 7.49037 10.4277 7.57037C9.5277 7.65037 8.74769 7.84037 8.0877 8.14037C7.4277 8.42037 6.9177 8.86037 6.5577 9.46037C6.1977 10.0404 6.0177 10.8504 6.0177 11.8904C6.0177 12.7704 6.1677 13.4604 6.4677 13.9604C6.7677 14.4404 7.1677 14.7904 7.6677 15.0104C8.1877 15.2304 8.7577 15.3704 9.3777 15.4304C9.9977 15.4904 10.6177 15.5204 11.2377 15.5204H12.7977H13.8777H14.7177C15.4577 15.5204 16.0077 15.6304 16.3677 15.8504C16.7277 16.0504 16.9077 16.4804 16.9077 17.1404C16.9077 17.6804 16.7877 18.1004 16.5477 18.4004C16.3077 18.7004 15.9577 18.9204 15.4977 19.0604C15.0377 19.1804 14.4877 19.2504 13.8477 19.2704C13.6277 19.2904 13.3477 19.3004 13.0077 19.3004H12.1977C11.5777 19.3004 10.8677 19.2904 10.0677 19.2704C9.2677 19.2304 8.49769 19.1604 7.7577 19.0604Z"/>
</mask>
<path fill-rule="evenodd" clip-rule="evenodd" d="M5 5C2.23858 5 0 7.23858 0 10V19C0 21.7614 2.23858 24 5 24H22C24.7614 24 27 21.7614 27 19V10C27 7.23858 24.7614 5 22 5H5ZM7.7577 19.0604C7.0177 18.9404 6.4077 18.7604 5.9277 18.5204V19.8404C5.9277 20.2004 6.0777 20.4904 6.3777 20.7104C6.6977 20.9104 7.1077 21.0704 7.6077 21.1904C8.1277 21.3104 8.7077 21.3904 9.3477 21.4304C10.0077 21.4704 10.6777 21.5004 11.3577 21.5204H13.6377C14.3577 21.5204 15.1077 21.4904 15.8877 21.4304C16.9277 21.3704 17.8377 21.2004 18.6177 20.9204C19.3977 20.6404 20.0077 20.1804 20.4477 19.5404C20.9077 18.9004 21.1377 18.0404 21.1377 16.9604C21.1377 15.8204 20.9377 14.9804 20.5377 14.4404C20.1577 13.9004 19.6177 13.5504 18.9177 13.3904C18.2177 13.2304 17.3977 13.1504 16.4577 13.1504H14.9877H12.3777C11.8777 13.1504 11.4577 13.1104 11.1177 13.0304C10.7977 12.9504 10.5477 12.8004 10.3677 12.5804C10.2077 12.3404 10.1277 12.0104 10.1277 11.5904C10.1277 11.0504 10.2477 10.6504 10.4877 10.3904C10.7477 10.1104 11.0977 9.92037 11.5377 9.82037C11.9977 9.72037 12.5377 9.67037 13.1577 9.67037H15.5277C15.9077 9.67037 16.3677 9.68037 16.9077 9.70037C17.4477 9.72037 17.9877 9.76037 18.5277 9.82037C19.0877 9.86037 19.5777 9.93037 19.9977 10.0304C20.4377 10.1304 20.7377 10.2604 20.8977 10.4204V10.1504V9.67037V9.34037C20.8977 8.94037 20.7477 8.61037 20.4477 8.35037C20.1477 8.07037 19.7177 7.91037 19.1577 7.87037C18.7977 7.75037 18.2777 7.66037 17.5977 7.60037C16.9377 7.54037 16.2277 7.50037 15.4677 7.48037C14.7077 7.46037 14.0077 7.45037 13.3677 7.45037C12.3077 7.45037 11.3277 7.49037 10.4277 7.57037C9.5277 7.65037 8.74769 7.84037 8.0877 8.14037C7.4277 8.42037 6.9177 8.86037 6.5577 9.46037C6.1977 10.0404 6.0177 10.8504 6.0177 11.8904C6.0177 12.7704 6.1677 13.4604 6.4677 13.9604C6.7677 14.4404 7.1677 14.7904 7.6677 15.0104C8.1877 15.2304 8.7577 15.3704 9.3777 15.4304C9.9977 15.4904 10.6177 15.5204 11.2377 15.5204H12.7977H13.8777H14.7177C15.4577 15.5204 16.0077 15.6304 16.3677 15.8504C16.7277 16.0504 16.9077 16.4804 16.9077 17.1404C16.9077 17.6804 16.7877 18.1004 16.5477 18.4004C16.3077 18.7004 15.9577 18.9204 15.4977 19.0604C15.0377 19.1804 14.4877 19.2504 13.8477 19.2704C13.6277 19.2904 13.3477 19.3004 13.0077 19.3004H12.1977C11.5777 19.3004 10.8677 19.2904 10.0677 19.2704C9.2677 19.2304 8.49769 19.1604 7.7577 19.0604Z" fill="black"/>
<path d="M5.9277 18.5204L6.37491 17.6259L4.9277 16.9023V18.5204H5.9277ZM7.7577 19.0604L7.59762 20.0475L7.61068 20.0496L7.62378 20.0514L7.7577 19.0604ZM6.3777 20.7104L5.78633 21.5168L5.81624 21.5387L5.84769 21.5584L6.3777 20.7104ZM7.6077 21.1904L7.37431 22.1628L7.38284 22.1648L7.6077 21.1904ZM9.3477 21.4304L9.28532 22.4284L9.2872 22.4285L9.3477 21.4304ZM11.3577 21.5204L11.3283 22.5199L11.343 22.5204H11.3577V21.5204ZM15.8877 21.4304L15.8301 20.432L15.8205 20.4326L15.811 20.4333L15.8877 21.4304ZM18.6177 20.9204L18.2798 19.9792L18.2798 19.9792L18.6177 20.9204ZM20.4477 19.5404L19.6357 18.9567L19.6296 18.9652L19.6237 18.9738L20.4477 19.5404ZM20.5377 14.4404L19.7199 15.0159L19.7269 15.0258L19.7341 15.0356L20.5377 14.4404ZM18.9177 13.3904L18.6949 14.3652L18.6949 14.3652L18.9177 13.3904ZM11.1177 13.0304L10.8751 14.0006L10.8887 14.0038L11.1177 13.0304ZM10.3677 12.5804L9.53565 13.1351L9.56277 13.1758L9.59374 13.2136L10.3677 12.5804ZM10.4877 10.3904L9.7549 9.70991L9.75289 9.71209L10.4877 10.3904ZM11.5377 9.82037L11.3253 8.84315L11.3161 8.84524L11.5377 9.82037ZM16.9077 9.70037L16.9447 8.70105L16.9447 8.70105L16.9077 9.70037ZM18.5277 9.82037L18.4173 10.8143L18.4368 10.8164L18.4564 10.8178L18.5277 9.82037ZM19.9977 10.0304L19.7661 11.0032L19.7761 11.0055L19.9977 10.0304ZM20.8977 10.4204L20.1906 11.1275L21.8977 12.8346V10.4204H20.8977ZM20.4477 8.35037L19.7654 9.08142L19.7788 9.09399L19.7928 9.10606L20.4477 8.35037ZM19.1577 7.87037L18.8415 8.81905L18.9609 8.85886L19.0864 8.86783L19.1577 7.87037ZM17.5977 7.60037L17.5072 8.59627L17.5098 8.5965L17.5977 7.60037ZM15.4677 7.48037L15.494 6.48072L15.494 6.48072L15.4677 7.48037ZM10.4277 7.57037L10.5162 8.56644L10.5162 8.56644L10.4277 7.57037ZM8.0877 8.14037L8.47825 9.06095L8.48994 9.05599L8.5015 9.05074L8.0877 8.14037ZM6.5577 9.46037L7.40734 9.98773L7.41131 9.98133L7.41519 9.97487L6.5577 9.46037ZM6.4677 13.9604L5.6102 14.4749L5.61488 14.4827L5.6197 14.4904L6.4677 13.9604ZM7.6677 15.0104L7.26496 15.9257L7.27149 15.9286L7.27806 15.9313L7.6677 15.0104ZM9.3777 15.4304L9.28137 16.4257L9.28137 16.4257L9.3777 15.4304ZM16.3677 15.8504L15.8462 16.7037L15.8639 16.7145L15.8821 16.7245L16.3677 15.8504ZM16.5477 18.4004L17.3286 19.0251L17.3286 19.0251L16.5477 18.4004ZM15.4977 19.0604L15.7501 20.028L15.7696 20.0229L15.7889 20.017L15.4977 19.0604ZM13.8477 19.2704L13.8165 18.2709L13.7868 18.2718L13.7572 18.2745L13.8477 19.2704ZM10.0677 19.2704L10.0178 20.2691L10.0302 20.2697L10.0427 20.2701L10.0677 19.2704ZM1 10C1 7.79086 2.79086 6 5 6V4C1.68629 4 -1 6.68629 -1 10H1ZM1 19V10H-1V19H1ZM5 23C2.79086 23 1 21.2091 1 19H-1C-1 22.3137 1.68629 25 5 25V23ZM22 23H5V25H22V23ZM26 19C26 21.2091 24.2091 23 22 23V25C25.3137 25 28 22.3137 28 19H26ZM26 10V19H28V10H26ZM22 6C24.2091 6 26 7.79086 26 10H28C28 6.68629 25.3137 4 22 4V6ZM5 6H22V4H5V6ZM5.48048 19.4148C6.07891 19.714 6.79419 19.9172 7.59762 20.0475L7.91777 18.0733C7.2412 17.9636 6.73648 17.8067 6.37491 17.6259L5.48048 19.4148ZM6.9277 19.8404V18.5204H4.9277V19.8404H6.9277ZM6.96906 19.904C6.94657 19.8875 6.93523 19.8758 6.93066 19.8706C6.92639 19.8658 6.92671 19.8652 6.92841 19.8684C6.93016 19.8718 6.93057 19.8739 6.93021 19.8724C6.92977 19.8705 6.9277 19.8606 6.9277 19.8404H4.9277C4.9277 20.5313 5.23957 21.1158 5.78633 21.5168L6.96906 19.904ZM7.84107 20.218C7.41064 20.1147 7.10973 19.9886 6.9077 19.8624L5.84769 21.5584C6.28566 21.8321 6.80475 22.0261 7.37432 22.1628L7.84107 20.218ZM9.41007 20.4323C8.81426 20.3951 8.28975 20.3215 7.83255 20.216L7.38284 22.1648C7.96564 22.2993 8.60113 22.3857 9.28532 22.4284L9.41007 20.4323ZM11.3871 20.5208C10.7172 20.5011 10.0575 20.4716 9.40819 20.4322L9.2872 22.4285C9.95785 22.4692 10.6382 22.4996 11.3283 22.5199L11.3871 20.5208ZM13.6377 20.5204H11.3577V22.5204H13.6377V20.5204ZM15.811 20.4333C15.0544 20.4915 14.33 20.5204 13.6377 20.5204V22.5204C14.3854 22.5204 15.161 22.4892 15.9644 22.4274L15.811 20.4333ZM18.2798 19.9792C17.6097 20.2197 16.7978 20.3762 15.8301 20.432L15.9453 22.4287C17.0576 22.3645 18.0657 22.181 18.9556 21.8616L18.2798 19.9792ZM19.6237 18.9738C19.3106 19.4292 18.8765 19.765 18.2798 19.9792L18.9556 21.8616C19.9189 21.5158 20.7048 20.9315 21.2717 20.1069L19.6237 18.9738ZM20.1377 16.9604C20.1377 17.9068 19.9356 18.5395 19.6357 18.9567L21.2597 20.124C21.8798 19.2612 22.1377 18.1739 22.1377 16.9604H20.1377ZM19.7341 15.0356C19.9447 15.3199 20.1377 15.9001 20.1377 16.9604H22.1377C22.1377 15.7407 21.9307 14.6408 21.3413 13.8451L19.7341 15.0356ZM18.6949 14.3652C19.1769 14.4754 19.495 14.6963 19.7199 15.0159L21.3555 13.8649C20.8204 13.1044 20.0585 12.6253 19.1405 12.4155L18.6949 14.3652ZM16.4577 14.1504C17.3443 14.1504 18.0864 14.2261 18.6949 14.3652L19.1405 12.4155C18.349 12.2346 17.4511 12.1504 16.4577 12.1504V14.1504ZM14.9877 14.1504H16.4577V12.1504H14.9877V14.1504ZM12.3777 14.1504H14.9877V12.1504H12.3777V14.1504ZM10.8887 14.0038C11.3282 14.1072 11.8307 14.1504 12.3777 14.1504V12.1504C11.9247 12.1504 11.5872 12.1135 11.3467 12.057L10.8887 14.0038ZM9.59374 13.2136C9.93108 13.6259 10.3812 13.877 10.8752 14.0005L11.3602 12.0602C11.2142 12.0237 11.1643 11.9748 11.1417 11.9471L9.59374 13.2136ZM9.1277 11.5904C9.1277 12.1223 9.22678 12.6718 9.53565 13.1351L11.1997 12.0257C11.1886 12.009 11.1277 11.8984 11.1277 11.5904H9.1277ZM9.75289 9.71209C9.27176 10.2333 9.1277 10.9273 9.1277 11.5904H11.1277C11.1277 11.3908 11.1503 11.2568 11.1755 11.1727C11.1878 11.1319 11.1997 11.1058 11.2081 11.0905C11.2162 11.0756 11.2216 11.0697 11.2225 11.0686L9.75289 9.71209ZM11.3161 8.84524C10.7162 8.98157 10.1751 9.25742 9.7549 9.70992L11.2205 11.0708C11.3203 10.9633 11.4792 10.8592 11.7593 10.7955L11.3161 8.84524ZM13.1577 8.67037C12.4873 8.67037 11.873 8.72412 11.3253 8.84319L11.7501 10.7975C12.1224 10.7166 12.5881 10.6704 13.1577 10.6704V8.67037ZM15.5277 8.67037H13.1577V10.6704H15.5277V8.67037ZM16.9447 8.70105C16.397 8.68077 15.924 8.67037 15.5277 8.67037V10.6704C15.8914 10.6704 16.3383 10.68 16.8707 10.6997L16.9447 8.70105ZM18.6381 8.82649C18.0739 8.76379 17.5094 8.72197 16.9447 8.70105L16.8707 10.6997C17.386 10.7188 17.9015 10.7569 18.4173 10.8143L18.6381 8.82649ZM20.2293 9.05756C19.7437 8.94194 19.1979 8.86569 18.5989 8.82291L18.4564 10.8178C18.9775 10.855 19.4117 10.9188 19.7661 11.0032L20.2293 9.05756ZM21.6048 9.71326C21.2334 9.34184 20.6927 9.16283 20.2193 9.05524L19.7761 11.0055C19.9567 11.0466 20.0786 11.0873 20.1551 11.1204C20.2367 11.1558 20.2298 11.1667 20.1906 11.1275L21.6048 9.71326ZM19.8977 10.1504V10.4204H21.8977V10.1504H19.8977ZM19.8977 9.67037V10.1504H21.8977V9.67037H19.8977ZM19.8977 9.34037V9.67037H21.8977V9.34037H19.8977ZM19.7928 9.10606C19.8717 9.17447 19.8977 9.22786 19.8977 9.34037H21.8977C21.8977 8.65288 21.6237 8.04627 21.1026 7.59468L19.7928 9.10606ZM19.0864 8.86783C19.5017 8.89749 19.6849 9.00634 19.7654 9.08142L21.13 7.61932C20.6105 7.1344 19.9337 6.92325 19.2289 6.87291L19.0864 8.86783ZM17.5098 8.5965C18.1633 8.65416 18.592 8.73591 18.8415 8.81905L19.4739 6.92169C19.0034 6.76483 18.3921 6.66658 17.6856 6.60424L17.5098 8.5965ZM15.4414 8.48002C16.183 8.49954 16.8714 8.53846 17.5072 8.59626L17.6882 6.60448C17.004 6.54228 16.2724 6.5012 15.494 6.48072L15.4414 8.48002ZM13.3677 8.45037C13.9975 8.45037 14.6886 8.46021 15.4414 8.48002L15.494 6.48072C14.7268 6.46053 14.0179 6.45037 13.3677 6.45037V8.45037ZM10.5162 8.56644C11.3823 8.48946 12.3323 8.45037 13.3677 8.45037V6.45037C12.283 6.45037 11.2731 6.49128 10.3392 6.5743L10.5162 8.56644ZM8.5015 9.05074C9.03692 8.80736 9.70214 8.63881 10.5162 8.56644L10.3392 6.5743C9.35325 6.66193 8.45847 6.87338 7.67389 7.23L8.5015 9.05074ZM7.41519 9.97487C7.66356 9.56092 8.00778 9.26054 8.47825 9.06095L7.69715 7.21979C6.84761 7.5802 6.17184 8.15982 5.7002 8.94587L7.41519 9.97487ZM7.0177 11.8904C7.0177 10.9464 7.18431 10.347 7.40734 9.98773L5.70806 8.93301C5.21108 9.73369 5.0177 10.7544 5.0177 11.8904H7.0177ZM7.32519 13.4459C7.15433 13.1611 7.0177 12.6746 7.0177 11.8904H5.0177C5.0177 12.8661 5.18106 13.7596 5.6102 14.4749L7.32519 13.4459ZM8.07043 14.0951C7.76109 13.9589 7.5134 13.7467 7.31569 13.4304L5.6197 14.4904C6.022 15.134 6.5743 15.6218 7.26496 15.9257L8.07043 14.0951ZM9.47402 14.435C8.94467 14.3838 8.4748 14.266 8.05734 14.0894L7.27806 15.9313C7.90059 16.1947 8.57072 16.3569 9.28137 16.4257L9.47402 14.435ZM11.2377 14.5204C10.65 14.5204 10.0622 14.4919 9.47402 14.435L9.28137 16.4257C9.93324 16.4888 10.5854 16.5204 11.2377 16.5204V14.5204ZM12.7977 14.5204H11.2377V16.5204H12.7977V14.5204ZM13.8777 14.5204H12.7977V16.5204H13.8777V14.5204ZM14.7177 14.5204H13.8777V16.5204H14.7177V14.5204ZM16.8891 14.9971C16.2938 14.6332 15.5208 14.5204 14.7177 14.5204V16.5204C15.3946 16.5204 15.7216 16.6275 15.8462 16.7037L16.8891 14.9971ZM17.9077 17.1404C17.9077 16.3501 17.6923 15.4423 16.8533 14.9762L15.8821 16.7245C15.8402 16.7013 15.8349 16.6723 15.8503 16.709C15.8725 16.7621 15.9077 16.8919 15.9077 17.1404H17.9077ZM17.3286 19.0251C17.7581 18.4881 17.9077 17.817 17.9077 17.1404H15.9077C15.9077 17.5437 15.8173 17.7126 15.7668 17.7757L17.3286 19.0251ZM15.7889 20.017C16.3931 19.8331 16.9341 19.5182 17.3286 19.0251L15.7668 17.7757C15.6813 17.8826 15.5223 18.0076 15.2065 18.1037L15.7889 20.017ZM13.8789 20.2699C14.5697 20.2483 15.1978 20.1721 15.7501 20.028L15.2453 18.0928C14.8776 18.1887 14.4057 18.2524 13.8165 18.2709L13.8789 20.2699ZM13.0077 20.3004C13.3637 20.3004 13.6767 20.29 13.9382 20.2663L13.7572 18.2745C13.5787 18.2907 13.3317 18.3004 13.0077 18.3004V20.3004ZM12.1977 20.3004H13.0077V18.3004H12.1977V20.3004ZM10.0427 20.2701C10.8488 20.2902 11.5674 20.3004 12.1977 20.3004V18.3004C11.588 18.3004 10.8866 18.2905 10.0927 18.2707L10.0427 20.2701ZM7.62378 20.0514C8.39357 20.1554 9.19167 20.2278 10.0178 20.2691L10.1176 18.2716C9.34372 18.2329 8.60182 18.1654 7.89161 18.0694L7.62378 20.0514Z" fill="black" mask="url(#path-2-inside-1_114_15)"/>
</svg>
